<mxfile host="app.diagrams.net" agent="Mozilla/5.0 (Windows NT 10.0; Win64; x64; rv:109.0) Gecko/20100101 Firefox/109.0" version="24.7.16">
  <diagram name="第 1 页" id="jb5ZMj83evHLwFNh5XGR">
    <mxGraphModel dx="1077" dy="574" grid="0" gridSize="10" guides="1" tooltips="1" connect="1" arrows="1" fold="1" page="1" pageScale="1" pageWidth="827" pageHeight="1169" math="0" shadow="0">
      <root>
        <mxCell id="0" />
        <mxCell id="1" parent="0" />
        <mxCell id="HtIYcwEj7GwXrSsQFHHO-2" value="" style="endArrow=classic;startArrow=classic;html=1;rounded=0;strokeColor=#000000;align=center;fontStyle=0;labelPosition=center;verticalLabelPosition=middle;verticalAlign=middle;strokeWidth=1;curved=0;shadow=0;dashed=1;" edge="1" parent="1">
          <mxGeometry width="50" height="50" relative="1" as="geometry">
            <mxPoint x="160" y="399.66" as="sourcePoint" />
            <mxPoint x="640" y="400" as="targetPoint" />
          </mxGeometry>
        </mxCell>
        <mxCell id="HtIYcwEj7GwXrSsQFHHO-3" value="" style="endArrow=classic;startArrow=classic;html=1;rounded=0;strokeColor=#000000;align=center;fontStyle=0;labelPosition=center;verticalLabelPosition=middle;verticalAlign=middle;strokeWidth=1;dashed=1;" edge="1" parent="1">
          <mxGeometry width="50" height="50" relative="1" as="geometry">
            <mxPoint x="400" y="200" as="sourcePoint" />
            <mxPoint x="400" y="600" as="targetPoint" />
          </mxGeometry>
        </mxCell>
        <mxCell id="HtIYcwEj7GwXrSsQFHHO-4" value="组织进步" style="text;html=1;align=center;verticalAlign=middle;whiteSpace=wrap;rounded=1;strokeColor=none;fontStyle=0;labelPosition=center;verticalLabelPosition=middle;sketch=1;curveFitting=1;jiggle=2;" vertex="1" parent="1">
          <mxGeometry x="640" y="385" width="60" height="30" as="geometry" />
        </mxCell>
        <mxCell id="HtIYcwEj7GwXrSsQFHHO-5" value="组织停滞" style="text;html=1;align=center;verticalAlign=middle;whiteSpace=wrap;rounded=1;strokeColor=none;fontStyle=0;labelPosition=center;verticalLabelPosition=middle;sketch=1;curveFitting=1;jiggle=2;" vertex="1" parent="1">
          <mxGeometry x="100" y="385" width="60" height="30" as="geometry" />
        </mxCell>
        <mxCell id="HtIYcwEj7GwXrSsQFHHO-6" value="机械搬砖" style="text;html=1;align=center;verticalAlign=middle;whiteSpace=wrap;rounded=1;strokeColor=none;fontStyle=0;labelPosition=center;verticalLabelPosition=middle;sketch=1;curveFitting=1;jiggle=2;" vertex="1" parent="1">
          <mxGeometry x="370" y="600" width="60" height="30" as="geometry" />
        </mxCell>
        <mxCell id="HtIYcwEj7GwXrSsQFHHO-7" value="个人成长" style="text;html=1;align=center;verticalAlign=middle;whiteSpace=wrap;rounded=1;strokeColor=none;fontStyle=0;labelPosition=center;verticalLabelPosition=middle;sketch=1;curveFitting=1;jiggle=2;" vertex="1" parent="1">
          <mxGeometry x="370" y="170" width="60" height="30" as="geometry" />
        </mxCell>
        <mxCell id="HtIYcwEj7GwXrSsQFHHO-9" value="&lt;font style=&quot;font-size: 8px;&quot;&gt;&lt;br&gt;A2：拿别人数据，自己写报告&lt;br&gt;&lt;br&gt;&lt;/font&gt;" style="rounded=1;whiteSpace=wrap;html=1;glass=0;shadow=1;align=center;fontStyle=0;labelPosition=center;verticalLabelPosition=middle;verticalAlign=middle;fillColor=#d5e8d4;strokeColor=#82b366;sketch=1;curveFitting=1;jiggle=2;" vertex="1" parent="1">
          <mxGeometry x="480" y="290" width="80" height="30" as="geometry" />
        </mxCell>
        <mxCell id="HtIYcwEj7GwXrSsQFHHO-10" value="&lt;font style=&quot;font-size: 8px;&quot;&gt;&lt;br&gt;&lt;/font&gt;&lt;div&gt;&lt;font style=&quot;font-size: 8px;&quot;&gt;A3：实施好的落地策略&lt;/font&gt;&lt;br&gt;&lt;/div&gt;&lt;font style=&quot;font-size: 8px;&quot;&gt;&lt;br&gt;&lt;/font&gt;" style="rounded=1;whiteSpace=wrap;html=1;fillColor=#d5e8d4;align=center;fontStyle=0;labelPosition=center;verticalLabelPosition=middle;verticalAlign=middle;strokeColor=#82b366;sketch=1;curveFitting=1;jiggle=2;" vertex="1" parent="1">
          <mxGeometry x="540" y="350" width="80" height="30" as="geometry" />
        </mxCell>
        <mxCell id="HtIYcwEj7GwXrSsQFHHO-11" value="&lt;div&gt;&lt;font style=&quot;font-size: 8px;&quot;&gt;A1：正确预判未来&lt;/font&gt;&lt;/div&gt;" style="rounded=1;whiteSpace=wrap;html=1;align=center;fontStyle=0;labelPosition=center;verticalLabelPosition=middle;verticalAlign=middle;fillColor=#d5e8d4;strokeColor=#82b366;sketch=1;curveFitting=1;jiggle=2;" vertex="1" parent="1">
          <mxGeometry x="420" y="230" width="80" height="30" as="geometry" />
        </mxCell>
        <mxCell id="HtIYcwEj7GwXrSsQFHHO-12" value="B1：学习公司资源  " style="rounded=1;whiteSpace=wrap;html=1;glass=0;shadow=1;fontSize=8;align=center;fontStyle=0;labelPosition=center;verticalLabelPosition=middle;verticalAlign=middle;fillColor=#dae8fc;strokeColor=#6c8ebf;sketch=1;curveFitting=1;jiggle=2;" vertex="1" parent="1">
          <mxGeometry x="300" y="230" width="80" height="30" as="geometry" />
        </mxCell>
        <mxCell id="HtIYcwEj7GwXrSsQFHHO-13" value="B2：了解周边部门，积累跳槽资本" style="rounded=1;whiteSpace=wrap;html=1;fontSize=8;align=center;fontStyle=0;labelPosition=center;verticalLabelPosition=middle;verticalAlign=middle;fillColor=#dae8fc;strokeColor=#6c8ebf;sketch=1;curveFitting=1;jiggle=2;" vertex="1" parent="1">
          <mxGeometry x="240" y="290" width="80" height="30" as="geometry" />
        </mxCell>
        <mxCell id="HtIYcwEj7GwXrSsQFHHO-14" value="B3：上班摸鱼" style="rounded=1;whiteSpace=wrap;html=1;strokeColor=#6c8ebf;fontSize=8;align=center;fontStyle=0;labelPosition=center;verticalLabelPosition=middle;verticalAlign=middle;fillColor=#dae8fc;sketch=1;curveFitting=1;jiggle=2;" vertex="1" parent="1">
          <mxGeometry x="180" y="350" width="80" height="30" as="geometry" />
        </mxCell>
        <mxCell id="HtIYcwEj7GwXrSsQFHHO-15" value="C1：边角料工作  " style="rounded=1;whiteSpace=wrap;html=1;glass=0;shadow=1;fontSize=8;align=center;fontStyle=0;labelPosition=center;verticalLabelPosition=middle;verticalAlign=middle;fillColor=#f8cecc;strokeColor=#b85450;sketch=1;curveFitting=1;jiggle=2;" vertex="1" parent="1">
          <mxGeometry x="300" y="540" width="80" height="30" as="geometry" />
        </mxCell>
        <mxCell id="HtIYcwEj7GwXrSsQFHHO-16" value="C3：自己跑数被摘桃子" style="rounded=1;whiteSpace=wrap;html=1;fontSize=8;align=center;fontStyle=0;labelPosition=center;verticalLabelPosition=middle;verticalAlign=middle;fillColor=#f8cecc;strokeColor=#b85450;sketch=1;curveFitting=1;jiggle=2;" vertex="1" parent="1">
          <mxGeometry x="180" y="420" width="80" height="30" as="geometry" />
        </mxCell>
        <mxCell id="HtIYcwEj7GwXrSsQFHHO-17" value="C2：内斗打头阵" style="rounded=1;whiteSpace=wrap;html=1;strokeColor=#b85450;fontSize=8;fillColor=#f8cecc;align=center;fontStyle=0;labelPosition=center;verticalLabelPosition=middle;verticalAlign=middle;sketch=1;curveFitting=1;jiggle=2;" vertex="1" parent="1">
          <mxGeometry x="240" y="480" width="80" height="30" as="geometry" />
        </mxCell>
        <mxCell id="HtIYcwEj7GwXrSsQFHHO-18" value="&lt;div&gt;D1：数据清洗/专家调研&lt;/div&gt;" style="rounded=1;whiteSpace=wrap;html=1;glass=0;shadow=1;fontSize=8;align=center;fontStyle=0;labelPosition=center;verticalLabelPosition=middle;verticalAlign=middle;fillColor=#fff2cc;strokeColor=#d6b656;sketch=1;curveFitting=1;jiggle=2;" vertex="1" parent="1">
          <mxGeometry x="420" y="540" width="80" height="30" as="geometry" />
        </mxCell>
        <mxCell id="HtIYcwEj7GwXrSsQFHHO-19" value="D2：日常报告例行雕花" style="rounded=1;whiteSpace=wrap;html=1;fontSize=8;fillColor=#fff2cc;align=center;fontStyle=0;labelPosition=center;verticalLabelPosition=middle;verticalAlign=middle;strokeColor=#d6b656;sketch=1;curveFitting=1;jiggle=2;" vertex="1" parent="1">
          <mxGeometry x="480" y="480" width="80" height="30" as="geometry" />
        </mxCell>
        <mxCell id="HtIYcwEj7GwXrSsQFHHO-20" value="D3：老板面前刷存在感" style="rounded=1;whiteSpace=wrap;html=1;strokeColor=#d6b656;fontSize=8;align=center;fontStyle=0;labelPosition=center;verticalLabelPosition=middle;verticalAlign=middle;fillColor=#fff2cc;sketch=1;curveFitting=1;jiggle=2;" vertex="1" parent="1">
          <mxGeometry x="540" y="420" width="80" height="30" as="geometry" />
        </mxCell>
      </root>
    </mxGraphModel>
  </diagram>
</mxfile>
